<svg width="26" height="26" viewBox="0 0 26 26" fill="none" xmlns="http://www.w3.org/2000/svg">
<path d="M8.28723 25.5492C7.60308 25.5492 7.0174 25.3056 6.5302 24.8184C6.043 24.3312 5.7994 23.7455 5.7994 23.0613C5.7994 22.3772 6.043 21.7915 6.5302 21.3043C7.0174 20.8171 7.60308 20.5735 8.28723 20.5735C8.97138 20.5735 9.55706 20.8171 10.0443 21.3043C10.5315 21.7915 10.7751 22.3772 10.7751 23.0613C10.7751 23.7455 10.5315 24.3312 10.0443 24.8184C9.55706 25.3056 8.97138 25.5492 8.28723 25.5492ZM20.7264 25.5492C20.0422 25.5492 19.4566 25.3056 18.9694 24.8184C18.4822 24.3312 18.2386 23.7455 18.2386 23.0613C18.2386 22.3772 18.4822 21.7915 18.9694 21.3043C19.4566 20.8171 20.0422 20.5735 20.7264 20.5735C21.4105 20.5735 21.9962 20.8171 22.4834 21.3043C22.9706 21.7915 23.2142 22.3772 23.2142 23.0613C23.2142 23.7455 22.9706 24.3312 22.4834 24.8184C21.9962 25.3056 21.4105 25.5492 20.7264 25.5492ZM7.2299 5.6465L10.2153 11.8661H18.9227L22.3435 5.6465H7.2299ZM6.04818 3.15867H24.3959C24.8728 3.15867 25.2356 3.37117 25.4844 3.79618C25.7332 4.22118 25.7435 4.65137 25.5155 5.08674L21.0996 13.0478C20.8715 13.4624 20.5657 13.7838 20.1822 14.0118C19.7986 14.2399 19.3788 14.3539 18.9227 14.3539H9.65554L8.28723 16.8418H23.2142V19.3296H8.28723C7.35429 19.3296 6.64941 18.9201 6.17257 18.1012C5.69574 17.2823 5.675 16.4686 6.11038 15.66L7.78966 12.6124L3.31156 3.15867H0.82373V0.670837H4.86646L6.04818 3.15867Z" fill="black"/>
</svg>
