<svg width="26" height="24" viewBox="0 0 26 24" fill="none" xmlns="http://www.w3.org/2000/svg">
<path d="M12.7839 23.2645L10.9802 21.6474C8.88629 19.7608 7.15517 18.1333 5.78686 16.765C4.41855 15.3967 3.33013 14.1684 2.52158 13.0799C1.71303 11.9915 1.14809 10.9912 0.826744 10.079C0.505399 9.16678 0.344727 8.23384 0.344727 7.28017C0.344727 5.33137 0.997783 3.70391 2.3039 2.3978C3.61001 1.09169 5.23747 0.438629 7.18627 0.438629C8.26433 0.438629 9.29056 0.66668 10.265 1.12278C11.2394 1.57889 12.079 2.22158 12.7839 3.05085C13.4888 2.22158 14.3284 1.57889 15.3028 1.12278C16.2772 0.66668 17.3035 0.438629 18.3815 0.438629C20.3303 0.438629 21.9578 1.09169 23.2639 2.3978C24.57 3.70391 25.2231 5.33137 25.2231 7.28017C25.2231 8.23384 25.0624 9.16678 24.741 10.079C24.4197 10.9912 23.8548 11.9915 23.0462 13.0799C22.2377 14.1684 21.1492 15.3967 19.7809 16.765C18.4126 18.1333 16.6815 19.7608 14.5876 21.6474L12.7839 23.2645ZM12.7839 19.9059C14.7742 18.123 16.412 16.594 17.6974 15.319C18.9827 14.044 19.9986 12.9348 20.745 11.9915C21.4913 11.0482 22.0096 10.2086 22.2999 9.47257C22.5901 8.73659 22.7352 8.00579 22.7352 7.28017C22.7352 6.03625 22.3206 4.99966 21.4913 4.17038C20.662 3.3411 19.6254 2.92646 18.3815 2.92646C17.4071 2.92646 16.5053 3.20116 15.676 3.75056C14.8467 4.29995 14.2766 4.99966 13.9656 5.84967H11.6022C11.2912 4.99966 10.7211 4.29995 9.89179 3.75056C9.06251 3.20116 8.16067 2.92646 7.18627 2.92646C5.94235 2.92646 4.90575 3.3411 4.07648 4.17038C3.2472 4.99966 2.83256 6.03625 2.83256 7.28017C2.83256 8.00579 2.97768 8.73659 3.26793 9.47257C3.55818 10.2086 4.07648 11.0482 4.82283 11.9915C5.56918 12.9348 6.58504 14.044 7.87042 15.319C9.1558 16.594 10.7936 18.123 12.7839 19.9059Z" fill="black"/>
</svg>
