<svg width="85" height="85" viewBox="0 0 85 85" fill="white" xmlns="http://www.w3.org/2000/svg">
<path d="M14.6748 60.2755C12.7498 60.2755 11.1019 59.5901 9.73105 58.2193C8.36022 56.8484 7.6748 55.2005 7.6748 53.2755V25.8005C7.6748 24.9255 7.92272 24.0651 8.41855 23.2193C8.91439 22.3734 9.5998 21.7172 10.4748 21.2505L37.4248 7.77551L63.8498 21.2505C64.5498 21.6005 65.1477 22.1547 65.6436 22.913C66.1394 23.6713 66.4748 24.4588 66.6498 25.2755H56.4123L37.4248 15.6505L14.6748 26.938V60.2755ZM25.1748 74.2755C23.2498 74.2755 21.6019 73.5901 20.2311 72.2193C18.8602 70.8484 18.1748 69.2005 18.1748 67.2755V35.7755C18.1748 33.8505 18.8602 32.2026 20.2311 30.8318C21.6019 29.4609 23.2498 28.7755 25.1748 28.7755H70.6748C72.5998 28.7755 74.2477 29.4609 75.6186 30.8318C76.9894 32.2026 77.6748 33.8505 77.6748 35.7755V67.2755C77.6748 69.2005 76.9894 70.8484 75.6186 72.2193C74.2477 73.5901 72.5998 74.2755 70.6748 74.2755H25.1748ZM47.9248 54.5005L25.1748 42.7755V67.2755H70.6748V42.7755L47.9248 54.5005ZM47.9248 47.5005L70.6748 35.7755H25.1748L47.9248 47.5005Z" fill="white"/>
</svg>
