<svg width="219" height="250" viewBox="0 0 219 250" fill="none" xmlns="http://www.w3.org/2000/svg">
<path fill-rule="evenodd" clip-rule="evenodd" d="M158 215V213H168V215H158ZM158 209H168V211H158V209Z" fill="#8C8C8C"/>
<path fill-rule="evenodd" clip-rule="evenodd" d="M75.0023 211C74.5237 210.998 74.062 210.823 73.7023 210.507L69.9703 212.659C70.0156 212.884 70.0156 213.116 69.9703 213.341L73.7023 215.493C74.0482 215.198 74.4845 215.031 74.9387 215.018C75.393 215.005 75.838 215.148 76.1997 215.423C76.5615 215.698 76.8184 216.089 76.9277 216.53C77.0371 216.971 76.9923 217.436 76.8009 217.848C76.6094 218.261 76.2828 218.595 75.8752 218.796C75.4677 218.997 75.0036 219.052 74.5601 218.953C74.1166 218.854 73.7202 218.607 73.4369 218.251C73.1535 217.896 73.0002 217.454 73.0023 217C73.0035 216.845 73.0233 216.69 73.0613 216.539L69.4003 214.428C69.1191 214.704 68.7626 214.89 68.3758 214.964C67.9889 215.038 67.5888 214.997 67.2256 214.844C66.8624 214.691 66.5524 214.435 66.3344 214.107C66.1163 213.779 66 213.394 66 213C66 212.606 66.1163 212.221 66.3344 211.893C66.5524 211.565 66.8624 211.309 67.2256 211.156C67.5888 211.003 67.9889 210.962 68.3758 211.036C68.7626 211.11 69.1191 211.296 69.4003 211.572L73.0613 209.461C73.0233 209.31 73.0035 209.155 73.0023 209C73.0023 208.604 73.1196 208.218 73.3394 207.889C73.5591 207.56 73.8715 207.304 74.2369 207.152C74.6024 207.001 75.0045 206.961 75.3925 207.038C75.7804 207.116 76.1368 207.306 76.4165 207.586C76.6962 207.865 76.8867 208.222 76.9639 208.61C77.041 208.998 77.0014 209.4 76.85 209.765C76.6987 210.131 76.4423 210.443 76.1134 210.663C75.7845 210.883 75.3979 211 75.0023 211Z" fill="#8C8C8C"/>
<path fill-rule="evenodd" clip-rule="evenodd" d="M8.666 244.975V244.375H9.558L8.53799 242.037L7 245L5.461 242.036L4.442 244.374H5.33299V244.974H1V244.374H1.743L4.89999 237L7 241.169L9.10001 237L12.254 244.374H13V244.974H8.666V244.975Z" fill="#ED1F24"/>
<path fill-rule="evenodd" clip-rule="evenodd" d="M126 214H122V218H120V214H116V212H120V208H122V212H126V214Z" fill="#8C8C8C"/>
<path fill-rule="evenodd" clip-rule="evenodd" d="M27.818 237.976L24.5103 241L27.818 244.024C27.8752 244.075 27.921 244.137 27.9524 244.207C27.9838 244.277 28 244.352 28 244.429C28 244.505 27.9838 244.58 27.9524 244.65C27.921 244.72 27.8752 244.782 27.818 244.833C27.697 244.94 27.5406 245 27.3786 245C27.2166 245 27.0602 244.94 26.9392 244.833L23.2099 241.423C23.2019 241.416 23.189 241.423 23.181 241.412C23.1239 241.36 23.0784 241.296 23.0472 241.225C23.0161 241.154 23 241.077 23 241C23 240.923 23.0161 240.846 23.0472 240.775C23.0784 240.704 23.1239 240.64 23.181 240.588C23.189 240.581 23.2019 240.588 23.2099 240.577L26.9392 237.167C27.0602 237.06 27.2166 237 27.3786 237C27.5406 237 27.697 237.06 27.818 237.167C27.8752 237.218 27.921 237.28 27.9524 237.35C27.9838 237.42 28 237.495 28 237.571C28 237.648 27.9838 237.723 27.9524 237.793C27.921 237.863 27.8752 237.925 27.818 237.976Z" fill="#8F8D8D"/>
<path fill-rule="evenodd" clip-rule="evenodd" d="M196 224H191V229C191 229.265 190.895 229.52 190.707 229.707C190.52 229.895 190.265 230 190 230C189.735 230 189.48 229.895 189.293 229.707C189.105 229.52 189 229.265 189 229V224H184C183.735 224 183.48 223.895 183.293 223.707C183.105 223.52 183 223.265 183 223C183 222.735 183.105 222.48 183.293 222.293C183.48 222.105 183.735 222 184 222H189V217C189 216.735 189.105 216.48 189.293 216.293C189.48 216.105 189.735 216 190 216C190.265 216 190.52 216.105 190.707 216.293C190.895 216.48 191 216.735 191 217V222H196C196.265 222 196.52 222.105 196.707 222.293C196.895 222.48 197 222.735 197 223C197 223.265 196.895 223.52 196.707 223.707C196.52 223.895 196.265 224 196 224Z" fill="white"/>
<path fill-rule="evenodd" clip-rule="evenodd" d="M100 216H98L95 218V216C94.4696 216 93.9609 215.789 93.5858 215.414C93.2107 215.039 93 214.53 93 214V211C93 210.47 93.2107 209.961 93.5858 209.586C93.9609 209.211 94.4696 209 95 209H100C100.53 209 101.039 209.211 101.414 209.586C101.789 209.961 102 210.47 102 211V214C102 214.53 101.789 215.039 101.414 215.414C101.039 215.789 100.53 216 100 216ZM101 211C101 210.735 100.895 210.48 100.707 210.293C100.52 210.105 100.265 210 100 210H95C94.7348 210 94.4804 210.105 94.2929 210.293C94.1054 210.48 94 210.735 94 211V214C94 214.265 94.1054 214.52 94.2929 214.707C94.4804 214.895 94.7348 215 95 215H95.5L96 215.5V216L97.5 215H100C100.265 215 100.52 214.895 100.707 214.707C100.895 214.52 101 214.265 101 214V211Z" fill="white"/>
<path fill-rule="evenodd" clip-rule="evenodd" d="M142.417 212.992L145.706 216.297C145.799 216.389 145.873 216.499 145.924 216.62C145.974 216.741 146 216.871 146 217.002C146 217.133 145.974 217.263 145.924 217.384C145.873 217.505 145.799 217.615 145.706 217.708C145.518 217.895 145.263 218 144.998 218C144.733 218 144.478 217.895 144.29 217.708L141 214.408L137.71 217.708C137.522 217.895 137.267 218 137.002 218C136.737 218 136.482 217.895 136.294 217.708C136.201 217.615 136.127 217.505 136.076 217.384C136.026 217.263 136 217.133 136 217.002C136 216.871 136.026 216.741 136.076 216.62C136.127 216.499 136.201 216.389 136.294 216.297L139.583 212.992L136.307 209.702C136.214 209.61 136.14 209.5 136.09 209.379C136.039 209.258 136.013 209.128 136.013 208.997C136.013 208.866 136.039 208.736 136.09 208.615C136.14 208.494 136.214 208.384 136.307 208.292C136.495 208.105 136.75 208 137.015 208C137.28 208 137.535 208.105 137.723 208.292L140.995 211.576L144.266 208.292C144.454 208.105 144.709 208 144.974 208C145.239 208 145.494 208.105 145.682 208.292C145.775 208.384 145.849 208.494 145.899 208.615C145.95 208.736 145.976 208.866 145.976 208.997C145.976 209.128 145.95 209.258 145.899 209.379C145.849 209.5 145.775 209.61 145.682 209.702L142.417 212.992Z" fill="white"/>
<path fill-rule="evenodd" clip-rule="evenodd" d="M194.7 187.702L189.909 192.508L194.687 197.297C194.78 197.389 194.854 197.499 194.905 197.62C194.955 197.741 194.981 197.871 194.981 198.002C194.981 198.133 194.955 198.263 194.905 198.384C194.854 198.505 194.78 198.615 194.687 198.708C194.499 198.895 194.244 199 193.978 199C193.713 199 193.458 198.895 193.269 198.708L188.497 193.923L183.725 198.708C183.536 198.895 183.281 199 183.016 199C182.75 199 182.495 198.895 182.307 198.708C182.213 198.615 182.139 198.505 182.089 198.384C182.039 198.263 182.013 198.133 182.013 198.002C182.013 197.871 182.039 197.741 182.089 197.62C182.139 197.499 182.213 197.389 182.307 197.297L187.085 192.508L182.294 187.702C182.201 187.61 182.127 187.5 182.076 187.379C182.026 187.258 182 187.128 182 186.997C182 186.866 182.026 186.736 182.076 186.615C182.127 186.494 182.201 186.384 182.294 186.292C182.483 186.105 182.737 186 183.003 186C183.268 186 183.523 186.105 183.712 186.292L188.503 191.091L193.294 186.292C193.483 186.105 193.738 186 194.003 186C194.269 186 194.523 186.105 194.712 186.292C194.805 186.385 194.877 186.495 194.927 186.617C194.976 186.738 195.001 186.868 195 187C194.999 187.131 194.972 187.26 194.92 187.381C194.869 187.502 194.794 187.611 194.7 187.702Z" fill="black"/>
<path fill-rule="evenodd" clip-rule="evenodd" d="M46.5585 191.98L46 190.742L48.9471 188.832V187.763C48.6404 187.482 48.3969 187.137 48.2334 186.751C48.0699 186.366 47.9901 185.949 47.9995 185.529C48.0251 184.084 48.2881 182.974 49.9882 183C51.6361 183.027 51.9837 184.161 51.9769 185.452C52.0306 185.896 51.9629 186.347 51.7811 186.755C51.5993 187.163 51.3106 187.512 50.9466 187.763V188.898L54 190.716L53.5942 192L46.5585 191.98Z" fill="#1D1A1A"/>
<path fill-rule="evenodd" clip-rule="evenodd" d="M211.558 191.98L211 190.742L213.947 188.832V187.763C213.64 187.482 213.397 187.137 213.233 186.751C213.07 186.366 212.99 185.949 213 185.529C213.025 184.084 213.288 182.974 214.988 183C216.636 183.027 216.984 184.161 216.977 185.452C217.031 185.896 216.963 186.347 216.781 186.755C216.599 187.163 216.311 187.512 215.947 187.763V188.898L219 190.716L218.594 192L211.558 191.98Z" fill="white"/>
<path fill-rule="evenodd" clip-rule="evenodd" d="M35.6117 187.979C36.2478 188.195 36.8948 188.377 37.55 188.525C37.6192 188.536 37.6857 188.56 37.7455 188.597C37.8053 188.633 37.8573 188.681 37.8985 188.738C37.9397 188.795 37.9693 188.86 37.9855 188.928C38.0018 188.997 38.0044 189.068 37.9932 189.138V189.503C38.0067 189.633 37.9871 189.764 37.9363 189.884C37.8855 190.004 37.8051 190.109 37.7027 190.189C37.3934 190.501 37.0279 190.751 36.6258 190.925C35.481 191.239 34.1805 190.505 33.2323 189.858C32.6264 189.446 32.06 188.979 31.5406 188.462C31.023 187.944 30.5551 187.377 30.1433 186.771C29.4946 185.82 28.762 184.52 29.0744 183.372C29.2492 182.969 29.4988 182.603 29.8099 182.294C29.8908 182.192 29.996 182.112 30.1158 182.061C30.2357 182.01 30.3663 181.991 30.4956 182.004H30.8599C30.9994 181.988 31.1395 182.028 31.251 182.113C31.3626 182.199 31.437 182.325 31.4588 182.464C31.6693 183.223 31.8131 183.77 32.0157 184.386C32.0985 184.641 32.0157 184.703 31.8061 184.852L31.4767 185.092C31.419 185.119 31.3674 185.157 31.3255 185.204C31.2835 185.252 31.252 185.308 31.2332 185.369C31.2143 185.43 31.2085 185.494 31.216 185.557C31.2236 185.621 31.2444 185.682 31.2771 185.736C31.9381 187.019 32.9807 188.062 34.2594 188.72C34.3139 188.753 34.3748 188.773 34.4379 188.781C34.501 188.789 34.565 188.783 34.6257 188.764C34.6864 188.745 34.7425 188.713 34.7903 188.671C34.8381 188.629 34.8765 188.577 34.9031 188.519C34.977 188.419 35.0468 188.318 35.1437 188.191C35.1587 188.145 35.183 188.103 35.2152 188.067C35.2473 188.031 35.2865 188.002 35.3302 187.983C35.374 187.963 35.4214 187.952 35.4693 187.952C35.5173 187.952 35.5648 187.962 35.6088 187.981L35.6117 187.979Z" fill="black"/>
<path fill-rule="evenodd" clip-rule="evenodd" d="M9.61998 210.959C10.2573 211.174 10.9055 211.356 11.562 211.503C11.6313 211.514 11.6979 211.538 11.7578 211.574C11.8178 211.611 11.8699 211.659 11.9112 211.715C11.9524 211.772 11.9821 211.836 11.9983 211.905C12.0146 211.973 12.0172 212.044 12.006 212.113V212.477C12.0195 212.606 11.9999 212.737 11.949 212.856C11.8981 212.976 11.8175 213.08 11.715 213.16C11.4051 213.471 11.0389 213.719 10.636 213.893C9.48898 214.205 8.18597 213.475 7.23597 212.83C6.62889 212.421 6.06143 211.955 5.54098 211.44C5.02236 210.924 4.55362 210.36 4.14099 209.756C3.49099 208.81 2.75699 207.515 3.06999 206.372C3.24513 205.971 3.49527 205.607 3.80699 205.299C3.88798 205.197 3.99338 205.117 4.11346 205.067C4.23354 205.016 4.36441 204.997 4.49398 205.01H4.85897C4.99872 204.994 5.1391 205.033 5.25087 205.119C5.36264 205.204 5.43719 205.329 5.45898 205.468C5.66998 206.224 5.81398 206.768 6.01698 207.382C6.09998 207.636 6.01699 207.697 5.80699 207.846L5.47699 208.085C5.41915 208.111 5.3675 208.149 5.32544 208.197C5.28337 208.244 5.25185 208.3 5.23295 208.361C5.21405 208.421 5.20821 208.485 5.2158 208.548C5.22339 208.611 5.24423 208.672 5.27697 208.726C5.93921 210.003 6.98384 211.042 8.26498 211.697C8.31967 211.73 8.38062 211.75 8.44386 211.758C8.5071 211.765 8.57123 211.76 8.63206 211.741C8.69289 211.722 8.74906 211.69 8.79695 211.648C8.84483 211.606 8.88335 211.555 8.90998 211.497C8.98398 211.397 9.05398 211.297 9.15098 211.17C9.16605 211.124 9.19045 211.082 9.22264 211.047C9.25482 211.011 9.29409 210.982 9.33793 210.963C9.38177 210.943 9.42922 210.933 9.47726 210.933C9.5253 210.932 9.57289 210.942 9.61698 210.961L9.61998 210.959Z" fill="white"/>
<path fill-rule="evenodd" clip-rule="evenodd" d="M56 166H5C4.20435 166 3.44129 165.684 2.87868 165.122C2.31607 164.56 2 163.797 2 163.002V132.022C2 131.227 2.31607 130.465 2.87868 129.903C3.44129 129.34 4.20435 129.024 5 129.024H17.785C17.0582 126.989 16.8315 124.808 17.1241 122.666C17.4166 120.525 18.2199 118.484 19.4662 116.718C20.7124 114.951 22.3653 113.509 24.2855 112.514C26.2057 111.519 28.337 111 30.5 111C32.663 111 34.7943 111.519 36.7145 112.514C38.6347 113.509 40.2876 114.951 41.5338 116.718C42.7801 118.484 43.5834 120.525 43.8759 122.666C44.1685 124.808 43.9418 126.989 43.215 129.024H56C56.7956 129.024 57.5587 129.34 58.1213 129.903C58.6839 130.465 59 131.227 59 132.022V163.002C59 163.797 58.6839 164.56 58.1213 165.122C57.5587 165.684 56.7956 166 56 166ZM55.445 164.001L36.806 148.512L31.098 152.821C31.0658 152.839 31.0324 152.854 30.998 152.868C30.9785 152.878 30.9585 152.888 30.938 152.897C30.851 152.944 30.7566 152.976 30.659 152.992C30.5519 153.002 30.4441 153.002 30.337 152.992C30.2394 152.976 30.1451 152.944 30.058 152.897C30.0375 152.888 30.0175 152.878 29.998 152.868C29.9636 152.854 29.9302 152.839 29.898 152.821L24.17 148.497L5.554 164.001H55.445ZM4 162.702L22.54 147.265L4 133.275V162.702ZM30.5 113.035C28.2255 113.035 26.0021 113.709 24.1109 114.972C22.2198 116.235 20.7458 118.03 19.8754 120.129C19.005 122.229 18.7772 124.54 19.221 126.769C19.6647 128.999 20.76 131.047 22.3683 132.654C23.9766 134.261 26.0257 135.356 28.2565 135.799C30.4872 136.242 32.7995 136.015 34.9009 135.145C37.0022 134.275 38.7983 132.802 40.0619 130.912C41.3255 129.022 42 126.8 42 124.527C42 121.479 40.7884 118.556 38.6317 116.401C36.4751 114.246 33.55 113.035 30.5 113.035ZM56 131.023H42.331C41.1664 133.141 39.454 134.907 37.3728 136.137C35.2916 137.367 32.918 138.016 30.5 138.016C28.082 138.016 25.7084 137.367 23.6272 136.137C21.546 134.907 19.8336 133.141 18.669 131.023H5C4.83094 131.027 4.6658 131.075 4.521 131.162C4.55241 131.175 4.58313 131.19 4.61301 131.206L30.5 150.749L56.387 131.206C56.4169 131.19 56.4476 131.175 56.479 131.162C56.3342 131.075 56.1691 131.027 56 131.023ZM57 133.267L38.44 147.277L57 162.702V133.267ZM28.714 129.732C28.5265 129.919 28.2722 130.025 28.007 130.025C27.7418 130.025 27.4875 129.919 27.3 129.732C27.287 129.719 27.283 129.702 27.271 129.688L23.279 125.7C23.1867 125.607 23.1137 125.497 23.0642 125.376C23.0147 125.255 22.9896 125.125 22.9905 124.995C22.9913 124.864 23.018 124.735 23.0691 124.614C23.1202 124.494 23.1946 124.385 23.288 124.294C23.4767 124.107 23.7317 124.004 23.9969 124.005C24.262 124.007 24.5157 124.114 24.702 124.303L28.01 127.607L36.283 119.323C36.4727 119.15 36.7216 119.057 36.9783 119.062C37.2349 119.068 37.4796 119.172 37.6617 119.352C37.8438 119.533 37.9494 119.777 37.9565 120.033C37.9636 120.29 37.8718 120.539 37.7 120.73L28.714 129.732Z" fill="white"/>
<path d="M129.707 132.707C130.098 132.317 130.098 131.683 129.707 131.293C129.317 130.902 128.683 130.902 128.293 131.293L123 136.586L120.707 134.293C120.317 133.902 119.683 133.902 119.293 134.293C118.902 134.683 118.902 135.317 119.293 135.707L122.293 138.707C122.683 139.098 123.317 139.098 123.707 138.707L129.707 132.707Z" fill="black"/>
<path fill-rule="evenodd" clip-rule="evenodd" d="M126 145.903C131.643 145.168 136 140.343 136 134.5C136 128.149 130.851 123 124.5 123C118.657 123 113.832 127.357 113.097 133H76C74.8954 133 74 133.895 74 135V164C74 165.105 74.8954 166 76 166H124C125.105 166 126 165.105 126 164V145.903ZM113.011 135H77.8216L100.015 151.758L115.002 140.986C113.827 139.268 113.105 137.215 113.011 135ZM92.7275 148.762L76 136.131V162.776L92.7275 148.762ZM122.311 164H77.6539L94.3654 149.998L99.3974 153.798C99.7471 154.062 100.228 154.068 100.584 153.812L105.526 150.26L122.311 164ZM124 145.989V162.798L107.207 149.052L116.273 142.535C118.253 144.562 120.975 145.86 124 145.989ZM134 134.5C134 139.747 129.747 144 124.5 144C119.253 144 115 139.747 115 134.5C115 129.253 119.253 125 124.5 125C129.747 125 134 129.253 134 134.5Z" fill="black"/>
<path fill-rule="evenodd" clip-rule="evenodd" d="M80 88H77V86H78.218C77.8 85.368 77.2279 84.8529 76.5557 84.5032C75.8835 84.1536 75.1333 83.9809 74.3758 84.0015C73.6184 84.0221 72.8787 84.2353 72.2264 84.621C71.5742 85.0067 71.031 85.5522 70.648 86.206L68.889 85.229C69.4505 84.2617 70.2527 83.4562 71.2176 82.8906C72.1825 82.325 73.2773 82.0186 74.3956 82.0012C75.5139 81.9838 76.6177 82.2559 77.5997 82.7912C78.5817 83.3265 79.4086 84.1067 80 85.056V83H82V88H80ZM72 89V91H70.783C71.201 91.6323 71.7733 92.1477 72.4458 92.4974C73.1183 92.8471 73.8688 93.0196 74.6266 92.9987C75.3843 92.9778 76.1241 92.7641 76.7763 92.3778C77.4285 91.9915 77.9715 91.4454 78.354 90.791L80.113 91.767C79.5521 92.7352 78.7503 93.5417 77.7853 94.1081C76.8204 94.6745 75.7253 94.9816 74.6066 94.9994C73.4878 95.0172 72.3835 94.7452 71.4011 94.2098C70.4186 93.6744 69.5914 92.8938 69 91.944V94H67V89H72Z" fill="white"/>
<path fill-rule="evenodd" clip-rule="evenodd" d="M15.967 29.66L16 29.688L9.46901 36L3.00001 29.688L3.03302 29.66C2.65423 29.2417 2.36857 28.7477 2.19494 28.2108C2.02132 27.6739 1.96368 27.1062 2.02585 26.5453C2.08801 25.9845 2.26855 25.4432 2.55554 24.9573C2.84252 24.4714 3.22941 24.052 3.69059 23.7268C4.15178 23.4016 4.67676 23.1781 5.2308 23.0709C5.78484 22.9638 6.35532 22.9755 6.90449 23.1053C7.45367 23.2351 7.96902 23.4801 8.41646 23.8239C8.86389 24.1678 9.23323 24.6027 9.50001 25.1C9.7668 24.6027 10.1361 24.1678 10.5836 23.8239C11.031 23.4801 11.5464 23.2351 12.0955 23.1053C12.6447 22.9755 13.2152 22.9638 13.7692 23.0709C14.3233 23.1781 14.8482 23.4016 15.3094 23.7268C15.7706 24.052 16.1575 24.4714 16.4445 24.9573C16.7315 25.4432 16.912 25.9845 16.9742 26.5453C17.0363 27.1062 16.9787 27.6739 16.8051 28.2108C16.6315 28.7477 16.3458 29.2417 15.967 29.66ZM13 25C12.6528 25.0009 12.3118 25.0924 12.0109 25.2655C11.7099 25.4386 11.4594 25.6873 11.284 25.987L9.53102 28.375L7.68802 25.906H7.67201C7.52564 25.6775 7.33422 25.4814 7.10945 25.3294C6.88467 25.1775 6.63128 25.073 6.36474 25.0224C6.09821 24.9717 5.82413 24.9759 5.55929 25.0348C5.29445 25.0937 5.04441 25.206 4.82444 25.3648C4.60448 25.5236 4.41921 25.7256 4.27998 25.9585C4.14075 26.1913 4.05047 26.4501 4.01468 26.7191C3.97888 26.988 3.99831 27.2614 4.07179 27.5226C4.14527 27.7837 4.27125 28.0272 4.44201 28.238V28.248L4.53302 28.348C4.56602 28.384 4.59801 28.419 4.63301 28.448L9.50401 33.529L14.535 28.31L14.529 28.278C14.7755 27.9877 14.9335 27.6328 14.9843 27.2553C15.0351 26.8779 14.9765 26.4939 14.8155 26.1487C14.6546 25.8036 14.3979 25.5119 14.0761 25.3083C13.7543 25.1047 13.3808 24.9977 13 25Z" fill="#8E8C8C"/>
<path fill-rule="evenodd" clip-rule="evenodd" d="M15.967 58.66L16 58.688L9.46901 65L3.00001 58.688L3.03302 58.66C2.65423 58.2417 2.36857 57.7477 2.19494 57.2108C2.02132 56.6739 1.96368 56.1062 2.02585 55.5453C2.08801 54.9845 2.26855 54.4432 2.55554 53.9573C2.84252 53.4714 3.22941 53.052 3.69059 52.7268C4.15178 52.4016 4.67676 52.1781 5.2308 52.0709C5.78484 51.9638 6.35532 51.9755 6.90449 52.1053C7.45367 52.2351 7.96902 52.4801 8.41646 52.8239C8.86389 53.1678 9.23323 53.6027 9.50001 54.1C9.7668 53.6027 10.1361 53.1678 10.5836 52.8239C11.031 52.4801 11.5464 52.2351 12.0955 52.1053C12.6447 51.9755 13.2152 51.9638 13.7692 52.0709C14.3233 52.1781 14.8482 52.4016 15.3094 52.7268C15.7706 53.052 16.1575 53.4714 16.4445 53.9573C16.7315 54.4432 16.912 54.9845 16.9742 55.5453C17.0363 56.1062 16.9787 56.6739 16.8051 57.2108C16.6315 57.7477 16.3458 58.2417 15.967 58.66ZM13 54C12.6528 54.0009 12.3118 54.0924 12.0109 54.2655C11.7099 54.4386 11.4594 54.6873 11.284 54.987L9.53102 57.375L7.68802 54.906H7.67201C7.52564 54.6775 7.33422 54.4814 7.10945 54.3294C6.88467 54.1775 6.63128 54.073 6.36474 54.0224C6.09821 53.9717 5.82413 53.9759 5.55929 54.0348C5.29445 54.0937 5.04441 54.206 4.82444 54.3648C4.60448 54.5236 4.41921 54.7256 4.27998 54.9585C4.14075 55.1913 4.05047 55.4501 4.01468 55.7191C3.97888 55.988 3.99831 56.2614 4.07179 56.5226C4.14527 56.7837 4.27125 57.0272 4.44201 57.238V57.248L4.53302 57.348C4.56602 57.384 4.59801 57.419 4.63301 57.448L9.50401 62.529L14.535 57.31L14.529 57.278C14.7755 56.9877 14.9335 56.6328 14.9843 56.2553C15.0351 55.8779 14.9765 55.4939 14.8155 55.1487C14.6546 54.8036 14.3979 54.5119 14.0761 54.3083C13.7543 54.1047 13.3808 53.9977 13 54Z" fill="white"/>
<path fill-rule="evenodd" clip-rule="evenodd" d="M14.967 86.66L15 86.688L8.46901 93L2.00001 86.688L2.03302 86.66C1.65423 86.2417 1.36857 85.7477 1.19494 85.2108C1.02132 84.6739 0.963681 84.1062 1.02585 83.5453C1.08801 82.9845 1.26855 82.4432 1.55554 81.9573C1.84252 81.4714 2.22941 81.052 2.69059 80.7268C3.15178 80.4016 3.67676 80.1781 4.2308 80.0709C4.78484 79.9638 5.35532 79.9755 5.90449 80.1053C6.45367 80.2351 6.96902 80.4801 7.41646 80.8239C7.86389 81.1678 8.23323 81.6027 8.50001 82.1C8.7668 81.6027 9.13613 81.1678 9.58357 80.8239C10.031 80.4801 10.5464 80.2351 11.0955 80.1053C11.6447 79.9755 12.2152 79.9638 12.7692 80.0709C13.3233 80.1781 13.8482 80.4016 14.3094 80.7268C14.7706 81.052 15.1575 81.4714 15.4445 81.9573C15.7315 82.4432 15.912 82.9845 15.9742 83.5453C16.0363 84.1062 15.9787 84.6739 15.8051 85.2108C15.6315 85.7477 15.3458 86.2417 14.967 86.66ZM12 82C11.6528 82.0009 11.3118 82.0924 11.0109 82.2655C10.7099 82.4386 10.4594 82.6873 10.284 82.987L8.53102 85.375L6.68802 82.906H6.67201C6.52564 82.6775 6.33422 82.4814 6.10945 82.3294C5.88467 82.1775 5.63128 82.073 5.36474 82.0224C5.09821 81.9717 4.82413 81.9759 4.55929 82.0348C4.29445 82.0937 4.04441 82.206 3.82444 82.3648C3.60448 82.5236 3.41921 82.7256 3.27998 82.9585C3.14075 83.1913 3.05047 83.4501 3.01468 83.7191C2.97888 83.988 2.99831 84.2614 3.07179 84.5226C3.14527 84.7837 3.27125 85.0272 3.44201 85.238V85.248L3.53302 85.348C3.56602 85.384 3.59801 85.419 3.63301 85.448L8.50401 90.529L13.535 85.31L13.529 85.278C13.7755 84.9877 13.9335 84.6328 13.9843 84.2553C14.0351 83.8779 13.9765 83.4939 13.8155 83.1487C13.6546 82.8036 13.3979 82.5119 13.0761 82.3083C12.7543 82.1047 12.3808 81.9977 12 82Z" fill="black"/>
<path fill-rule="evenodd" clip-rule="evenodd" d="M39 93C38.7348 93 38.4804 92.8946 38.2929 92.7071C38.1054 92.5196 38 92.2652 38 92V88C38 87.7348 38.1054 87.4804 38.2929 87.2929C38.4804 87.1054 38.7348 87 39 87C39.2652 87 39.5196 87.1054 39.7071 87.2929C39.8946 87.4804 40 87.7348 40 88V92C40 92.2652 39.8946 92.5196 39.7071 92.7071C39.5196 92.8946 39.2652 93 39 93ZM35 93C34.7348 93 34.4804 92.8946 34.2929 92.7071C34.1054 92.5196 34 92.2652 34 92V84C34 83.7348 34.1054 83.4804 34.2929 83.2929C34.4804 83.1054 34.7348 83 35 83C35.2652 83 35.5196 83.1054 35.7071 83.2929C35.8946 83.4804 36 83.7348 36 84V92C36 92.2652 35.8946 92.5196 35.7071 92.7071C35.5196 92.8946 35.2652 93 35 93ZM31 93C30.7348 93 30.4804 92.8946 30.2929 92.7071C30.1054 92.5196 30 92.2652 30 92V81C30 80.7348 30.1054 80.4804 30.2929 80.2929C30.4804 80.1054 30.7348 80 31 80C31.2652 80 31.5196 80.1054 31.7071 80.2929C31.8946 80.4804 32 80.7348 32 81V92C32 92.2652 31.8946 92.5196 31.7071 92.7071C31.5196 92.8946 31.2652 93 31 93ZM27 93C26.7348 93 26.4804 92.8946 26.2929 92.7071C26.1054 92.5196 26 92.2652 26 92V87C26 86.7348 26.1054 86.4804 26.2929 86.2929C26.4804 86.1054 26.7348 86 27 86C27.2652 86 27.5196 86.1054 27.7071 86.2929C27.8946 86.4804 28 86.7348 28 87V92C28 92.2652 27.8946 92.5196 27.7071 92.7071C27.5196 92.8946 27.2652 93 27 93Z" fill="black"/>
<path fill-rule="evenodd" clip-rule="evenodd" d="M39 65C38.7348 65 38.4804 64.8946 38.2929 64.7071C38.1054 64.5196 38 64.2652 38 64V60C38 59.7348 38.1054 59.4804 38.2929 59.2929C38.4804 59.1054 38.7348 59 39 59C39.2652 59 39.5196 59.1054 39.7071 59.2929C39.8946 59.4804 40 59.7348 40 60V64C40 64.2652 39.8946 64.5196 39.7071 64.7071C39.5196 64.8946 39.2652 65 39 65ZM35 65C34.7348 65 34.4804 64.8946 34.2929 64.7071C34.1054 64.5196 34 64.2652 34 64V56C34 55.7348 34.1054 55.4804 34.2929 55.2929C34.4804 55.1054 34.7348 55 35 55C35.2652 55 35.5196 55.1054 35.7071 55.2929C35.8946 55.4804 36 55.7348 36 56V64C36 64.2652 35.8946 64.5196 35.7071 64.7071C35.5196 64.8946 35.2652 65 35 65ZM31 65C30.7348 65 30.4804 64.8946 30.2929 64.7071C30.1054 64.5196 30 64.2652 30 64V53C30 52.7348 30.1054 52.4804 30.2929 52.2929C30.4804 52.1054 30.7348 52 31 52C31.2652 52 31.5196 52.1054 31.7071 52.2929C31.8946 52.4804 32 52.7348 32 53V64C32 64.2652 31.8946 64.5196 31.7071 64.7071C31.5196 64.8946 31.2652 65 31 65ZM27 65C26.7348 65 26.4804 64.8946 26.2929 64.7071C26.1054 64.5196 26 64.2652 26 64V59C26 58.7348 26.1054 58.4804 26.2929 58.2929C26.4804 58.1054 26.7348 58 27 58C27.2652 58 27.5196 58.1054 27.7071 58.2929C27.8946 58.4804 28 58.7348 28 59V64C28 64.2652 27.8946 64.5196 27.7071 64.7071C27.5196 64.8946 27.2652 65 27 65Z" fill="white"/>
<path fill-rule="evenodd" clip-rule="evenodd" d="M40 34C39.7348 34 39.4804 33.8946 39.2929 33.7071C39.1054 33.5196 39 33.2652 39 33V29C39 28.7348 39.1054 28.4804 39.2929 28.2929C39.4804 28.1054 39.7348 28 40 28C40.2652 28 40.5196 28.1054 40.7071 28.2929C40.8946 28.4804 41 28.7348 41 29V33C41 33.2652 40.8946 33.5196 40.7071 33.7071C40.5196 33.8946 40.2652 34 40 34ZM36 34C35.7348 34 35.4804 33.8946 35.2929 33.7071C35.1054 33.5196 35 33.2652 35 33V25C35 24.7348 35.1054 24.4804 35.2929 24.2929C35.4804 24.1054 35.7348 24 36 24C36.2652 24 36.5196 24.1054 36.7071 24.2929C36.8946 24.4804 37 24.7348 37 25V33C37 33.2652 36.8946 33.5196 36.7071 33.7071C36.5196 33.8946 36.2652 34 36 34ZM32 34C31.7348 34 31.4804 33.8946 31.2929 33.7071C31.1054 33.5196 31 33.2652 31 33V22C31 21.7348 31.1054 21.4804 31.2929 21.2929C31.4804 21.1054 31.7348 21 32 21C32.2652 21 32.5196 21.1054 32.7071 21.2929C32.8946 21.4804 33 21.7348 33 22V33C33 33.2652 32.8946 33.5196 32.7071 33.7071C32.5196 33.8946 32.2652 34 32 34ZM28 34C27.7348 34 27.4804 33.8946 27.2929 33.7071C27.1054 33.5196 27 33.2652 27 33V28C27 27.7348 27.1054 27.4804 27.2929 27.2929C27.4804 27.1054 27.7348 27 28 27C28.2652 27 28.5196 27.1054 28.7071 27.2929C28.8946 27.4804 29 27.7348 29 28V33C29 33.2652 28.8946 33.5196 28.7071 33.7071C28.5196 33.8946 28.2652 34 28 34Z" fill="#8E8C8C"/>
<path fill-rule="evenodd" clip-rule="evenodd" d="M97 187C97.2652 187 97.5196 187.105 97.7071 187.293C97.8946 187.48 98 187.735 98 188V194C98 194.265 97.8946 194.52 97.7071 194.707C97.5196 194.895 97.2652 195 97 195C96.7348 195 96.4804 194.895 96.2929 194.707C96.1054 194.52 96 194.265 96 194V188C96 187.735 96.1054 187.48 96.2929 187.293C96.4804 187.105 96.7348 187 97 187ZM101 180C101.265 180 101.52 180.105 101.707 180.293C101.895 180.48 102 180.735 102 181V194C102 194.265 101.895 194.52 101.707 194.707C101.52 194.895 101.265 195 101 195C100.735 195 100.48 194.895 100.293 194.707C100.105 194.52 100 194.265 100 194V181C100 180.735 100.105 180.48 100.293 180.293C100.48 180.105 100.735 180 101 180ZM105 183C105.265 183 105.52 183.105 105.707 183.293C105.895 183.48 106 183.735 106 184V194C106 194.265 105.895 194.52 105.707 194.707C105.52 194.895 105.265 195 105 195C104.735 195 104.48 194.895 104.293 194.707C104.105 194.52 104 194.265 104 194V184C104 183.735 104.105 183.48 104.293 183.293C104.48 183.105 104.735 183 105 183ZM109 189C109.265 189 109.52 189.105 109.707 189.293C109.895 189.48 110 189.735 110 190V194C110 194.265 109.895 194.52 109.707 194.707C109.52 194.895 109.265 195 109 195C108.735 195 108.48 194.895 108.293 194.707C108.105 194.52 108 194.265 108 194V190C108 189.735 108.105 189.48 108.293 189.293C108.48 189.105 108.735 189 109 189Z" fill="black"/>
<path fill-rule="evenodd" clip-rule="evenodd" d="M169 144C169.265 144 169.52 144.105 169.707 144.293C169.895 144.48 170 144.735 170 145V151C170 151.265 169.895 151.52 169.707 151.707C169.52 151.895 169.265 152 169 152C168.735 152 168.48 151.895 168.293 151.707C168.105 151.52 168 151.265 168 151V145C168 144.735 168.105 144.48 168.293 144.293C168.48 144.105 168.735 144 169 144ZM173 137C173.265 137 173.52 137.105 173.707 137.293C173.895 137.48 174 137.735 174 138V151C174 151.265 173.895 151.52 173.707 151.707C173.52 151.895 173.265 152 173 152C172.735 152 172.48 151.895 172.293 151.707C172.105 151.52 172 151.265 172 151V138C172 137.735 172.105 137.48 172.293 137.293C172.48 137.105 172.735 137 173 137ZM177 140C177.265 140 177.52 140.105 177.707 140.293C177.895 140.48 178 140.735 178 141V151C178 151.265 177.895 151.52 177.707 151.707C177.52 151.895 177.265 152 177 152C176.735 152 176.48 151.895 176.293 151.707C176.105 151.52 176 151.265 176 151V141C176 140.735 176.105 140.48 176.293 140.293C176.48 140.105 176.735 140 177 140ZM181 146C181.265 146 181.52 146.105 181.707 146.293C181.895 146.48 182 146.735 182 147V151C182 151.265 181.895 151.52 181.707 151.707C181.52 151.895 181.265 152 181 152C180.735 152 180.48 151.895 180.293 151.707C180.105 151.52 180 151.265 180 151V147C180 146.735 180.105 146.48 180.293 146.293C180.48 146.105 180.735 146 181 146Z" fill="white"/>
<path fill-rule="evenodd" clip-rule="evenodd" d="M80.74 192.75C80.5525 192.937 80.2981 193.043 80.033 193.043C79.7678 193.043 79.5135 192.937 79.326 192.75L76.333 189.726C75.0064 190.7 73.3611 191.137 71.7262 190.95C70.0912 190.763 68.5871 189.966 67.5144 188.718C66.4418 187.47 65.8798 185.863 65.9406 184.218C66.0015 182.574 66.6808 181.013 67.8428 179.848C69.0048 178.683 70.5637 177.999 72.208 177.933C73.8523 177.868 75.4608 178.425 76.7118 179.494C77.9628 180.563 78.7642 182.065 78.9557 183.7C79.1473 185.334 78.7149 186.981 77.745 188.31L80.745 191.335C80.8376 191.428 80.911 191.539 80.9609 191.66C81.0108 191.782 81.0363 191.912 81.0358 192.044C81.0353 192.175 81.009 192.305 80.9582 192.426C80.9075 192.547 80.8333 192.657 80.74 192.75ZM72.5 180C71.61 180 70.7399 180.264 69.9999 180.758C69.2599 181.253 68.6831 181.956 68.3425 182.778C68.0019 183.6 67.9128 184.505 68.0864 185.378C68.2601 186.251 68.6887 187.053 69.318 187.682C69.9473 188.311 70.7492 188.74 71.6221 188.914C72.495 189.087 73.3998 188.998 74.2221 188.657C75.0443 188.317 75.7471 187.74 76.2416 187C76.7361 186.26 77 185.39 77 184.5C77 183.307 76.5259 182.162 75.682 181.318C74.8381 180.474 73.6935 180 72.5 180Z" fill="black"/>
<path fill-rule="evenodd" clip-rule="evenodd" d="M158.74 151.75C158.552 151.937 158.298 152.043 158.033 152.043C157.768 152.043 157.514 151.937 157.326 151.75L154.333 148.726C153.006 149.7 151.361 150.137 149.726 149.95C148.091 149.763 146.587 148.966 145.514 147.718C144.442 146.47 143.88 144.863 143.941 143.218C144.002 141.574 144.681 140.013 145.843 138.848C147.005 137.683 148.564 136.999 150.208 136.933C151.852 136.868 153.461 137.425 154.712 138.494C155.963 139.563 156.764 141.065 156.956 142.7C157.147 144.334 156.715 145.981 155.745 147.31L158.745 150.335C158.838 150.428 158.911 150.539 158.961 150.66C159.011 150.782 159.036 150.912 159.036 151.044C159.035 151.175 159.009 151.305 158.958 151.426C158.907 151.547 158.833 151.657 158.74 151.75ZM150.5 139C149.61 139 148.74 139.264 148 139.758C147.26 140.253 146.683 140.956 146.343 141.778C146.002 142.6 145.913 143.505 146.086 144.378C146.26 145.251 146.689 146.053 147.318 146.682C147.947 147.311 148.749 147.74 149.622 147.914C150.495 148.087 151.4 147.998 152.222 147.657C153.044 147.317 153.747 146.74 154.242 146C154.736 145.26 155 144.39 155 143.5C155 142.307 154.526 141.162 153.682 140.318C152.838 139.474 151.693 139 150.5 139Z" fill="white"/>
<path fill-rule="evenodd" clip-rule="evenodd" d="M134.74 95.75C134.552 95.9375 134.298 96.0428 134.033 96.0428C133.768 96.0428 133.514 95.9375 133.326 95.75L130.765 93.163C129.728 93.8557 128.471 94.1386 127.238 93.9569C126.004 93.7751 124.883 93.1417 124.09 92.1795C123.297 91.2173 122.89 89.9949 122.947 88.7495C123.005 87.5041 123.523 86.3244 124.401 85.4394C125.279 84.5544 126.455 84.0271 127.7 83.9599C128.945 83.8927 130.17 84.2903 131.139 85.0756C132.107 85.8609 132.749 86.9779 132.94 88.2099C133.132 89.4419 132.859 90.701 132.174 91.743L134.74 94.335C134.833 94.4279 134.907 94.5382 134.957 94.6596C135.007 94.781 135.033 94.9111 135.033 95.0425C135.033 95.1739 135.007 95.304 134.957 95.4254C134.907 95.5468 134.833 95.6571 134.74 95.75ZM128 86C127.407 86 126.827 86.1759 126.333 86.5056C125.84 86.8352 125.455 87.3038 125.228 87.8519C125.001 88.4001 124.942 89.0033 125.058 89.5853C125.173 90.1672 125.459 90.7018 125.879 91.1213C126.298 91.5409 126.833 91.8266 127.415 91.9423C127.997 92.0581 128.6 91.9987 129.148 91.7716C129.696 91.5446 130.165 91.1601 130.494 90.6667C130.824 90.1734 131 89.5933 131 89C131 88.2043 130.684 87.4413 130.121 86.8787C129.559 86.3161 128.796 86 128 86Z" fill="#888888"/>
<path fill-rule="evenodd" clip-rule="evenodd" d="M110.74 94.75C110.552 94.9375 110.298 95.0428 110.033 95.0428C109.768 95.0428 109.514 94.9375 109.326 94.75L107.166 92.56C106.657 92.8451 106.084 92.9964 105.5 93C104.808 93 104.131 92.7947 103.556 92.4101C102.98 92.0256 102.531 91.4789 102.266 90.8394C102.002 90.1999 101.932 89.4961 102.067 88.8172C102.202 88.1383 102.536 87.5146 103.025 87.0251C103.515 86.5357 104.138 86.2023 104.817 86.0673C105.496 85.9322 106.2 86.0015 106.839 86.2664C107.479 86.5313 108.026 86.9799 108.41 87.5555C108.795 88.1311 109 88.8078 109 89.5C108.996 90.0735 108.85 90.6371 108.574 91.14L110.74 93.34C110.926 93.5274 111.031 93.7808 111.031 94.045C111.031 94.3092 110.926 94.5626 110.74 94.75ZM105.5 88C105.203 88 104.913 88.088 104.667 88.2528C104.42 88.4176 104.228 88.6519 104.114 88.926C104.001 89.2001 103.971 89.5017 104.029 89.7926C104.087 90.0836 104.23 90.3509 104.439 90.5607C104.649 90.7704 104.916 90.9133 105.207 90.9712C105.498 91.0291 105.8 90.9994 106.074 90.8858C106.348 90.7723 106.582 90.58 106.747 90.3334C106.912 90.0867 107 89.7967 107 89.5C107 89.1022 106.842 88.7207 106.561 88.4394C106.279 88.158 105.898 88 105.5 88Z" fill="#E62222"/>
<path fill-rule="evenodd" clip-rule="evenodd" d="M50.973 210.133C50.973 210.153 50.973 210.171 50.973 210.191L49.988 215.206C49.9731 215.251 49.9543 215.295 49.932 215.337C49.919 215.372 49.905 215.404 49.889 215.437C49.8492 215.519 49.798 215.595 49.737 215.663C49.711 215.691 49.685 215.716 49.656 215.742C49.5923 215.798 49.5218 215.845 49.446 215.883C49.4039 215.904 49.3601 215.922 49.315 215.936C49.2422 215.961 49.1666 215.976 49.09 215.982C49.0603 215.99 49.0303 215.996 49 216H39C38.972 216 38.949 215.986 38.922 215.984C38.6849 215.977 38.4579 215.886 38.2817 215.727C38.1055 215.568 37.9914 215.352 37.96 215.117L37.105 208H35C34.7348 208 34.4804 207.895 34.2929 207.707C34.1054 207.52 34 207.265 34 207C34 206.735 34.1054 206.48 34.2929 206.293C34.4804 206.105 34.7348 206 35 206H38C38.037 206.005 38.0738 206.013 38.11 206.022C38.1996 206.028 38.288 206.046 38.373 206.075C38.389 206.082 38.403 206.091 38.418 206.098C38.5803 206.164 38.7223 206.271 38.8296 206.41C38.9369 206.548 39.0057 206.712 39.029 206.886L39.282 209H50C50.01 209 50.019 209.006 50.029 209.006C50.0855 209.001 50.1424 209.001 50.199 209.006C50.249 209.023 50.2975 209.043 50.344 209.068C50.374 209.08 50.402 209.092 50.431 209.106C50.5124 209.146 50.5878 209.196 50.655 209.257C50.688 209.287 50.719 209.318 50.748 209.352C50.7951 209.408 50.836 209.468 50.87 209.533C50.8992 209.589 50.923 209.648 50.941 209.709C50.9574 209.763 50.9688 209.819 50.975 209.875C50.9859 209.916 50.9942 209.958 51 210C50.9941 210.045 50.9851 210.089 50.973 210.133ZM39.522 211L39.882 214H48.187L48.776 211H39.522ZM40.5 217C40.9945 217 41.4778 217.147 41.8889 217.421C42.3 217.696 42.6205 218.086 42.8097 218.543C42.9989 219 43.0484 219.503 42.952 219.988C42.8555 220.473 42.6174 220.918 42.2678 221.268C41.9181 221.617 41.4727 221.856 40.9877 221.952C40.5028 222.048 40.0001 221.999 39.5433 221.81C39.0865 221.62 38.696 221.3 38.4213 220.889C38.1466 220.478 38 219.994 38 219.5C38 218.837 38.2634 218.201 38.7322 217.732C39.2011 217.263 39.837 217 40.5 217ZM40.5 220C40.5989 220 40.6955 219.971 40.7778 219.916C40.86 219.861 40.9241 219.783 40.9619 219.691C40.9998 219.6 41.0097 219.499 40.9904 219.402C40.9711 219.305 40.9235 219.216 40.8535 219.146C40.7836 219.077 40.6945 219.029 40.5975 219.01C40.5005 218.99 40.4 219 40.3087 219.038C40.2173 219.076 40.1392 219.14 40.0843 219.222C40.0293 219.304 40 219.401 40 219.5C40 219.633 40.0527 219.76 40.1465 219.854C40.2402 219.947 40.3674 220 40.5 220ZM47.5 217C47.9945 217 48.4778 217.147 48.8889 217.421C49.3 217.696 49.6205 218.086 49.8097 218.543C49.9989 219 50.0484 219.503 49.952 219.988C49.8555 220.473 49.6174 220.918 49.2678 221.268C48.9181 221.617 48.4727 221.856 47.9877 221.952C47.5028 222.048 47.0001 221.999 46.5433 221.81C46.0865 221.62 45.696 221.3 45.4213 220.889C45.1466 220.478 45 219.994 45 219.5C45 218.837 45.2634 218.201 45.7322 217.732C46.2011 217.263 46.837 217 47.5 217ZM47.5 220C47.5989 220 47.6955 219.971 47.7778 219.916C47.86 219.861 47.9241 219.783 47.9619 219.691C47.9998 219.6 48.0097 219.499 47.9904 219.402C47.9711 219.305 47.9235 219.216 47.8535 219.146C47.7836 219.077 47.6945 219.029 47.5975 219.01C47.5005 218.99 47.4 219 47.3087 219.038C47.2173 219.076 47.1392 219.14 47.0843 219.222C47.0293 219.304 47 219.401 47 219.5C47 219.633 47.0527 219.76 47.1465 219.854C47.2402 219.947 47.3674 220 47.5 220Z" fill="#8F8D8D"/>
<path fill-rule="evenodd" clip-rule="evenodd" d="M166.973 184.133C166.973 184.153 166.973 184.171 166.973 184.191L165.988 189.206C165.973 189.251 165.954 189.295 165.932 189.337C165.919 189.372 165.905 189.404 165.889 189.437C165.849 189.519 165.798 189.595 165.737 189.663C165.711 189.691 165.685 189.716 165.656 189.742C165.592 189.798 165.522 189.845 165.446 189.883C165.404 189.904 165.36 189.922 165.315 189.936C165.242 189.961 165.167 189.976 165.09 189.982C165.06 189.99 165.03 189.996 165 190H155C154.972 190 154.949 189.986 154.922 189.984C154.685 189.977 154.458 189.886 154.282 189.727C154.105 189.568 153.991 189.352 153.96 189.117L153.105 182H151C150.735 182 150.48 181.895 150.293 181.707C150.105 181.52 150 181.265 150 181C150 180.735 150.105 180.48 150.293 180.293C150.48 180.105 150.735 180 151 180H154C154.037 180.005 154.074 180.013 154.11 180.022C154.2 180.028 154.288 180.046 154.373 180.075C154.389 180.082 154.403 180.091 154.418 180.098C154.58 180.164 154.722 180.271 154.83 180.41C154.937 180.548 155.006 180.712 155.029 180.886L155.282 183H166C166.01 183 166.019 183.006 166.029 183.006C166.086 183.001 166.142 183.001 166.199 183.006C166.249 183.023 166.298 183.043 166.344 183.068C166.374 183.08 166.402 183.092 166.431 183.106C166.512 183.146 166.588 183.196 166.655 183.257C166.688 183.287 166.719 183.318 166.748 183.352C166.795 183.408 166.836 183.468 166.87 183.533C166.899 183.589 166.923 183.648 166.941 183.709C166.957 183.763 166.969 183.819 166.975 183.875C166.986 183.916 166.994 183.958 167 184C166.994 184.045 166.985 184.089 166.973 184.133ZM155.522 185L155.882 188H164.187L164.776 185H155.522ZM156.5 191C156.994 191 157.478 191.147 157.889 191.421C158.3 191.696 158.62 192.086 158.81 192.543C158.999 193 159.048 193.503 158.952 193.988C158.856 194.473 158.617 194.918 158.268 195.268C157.918 195.617 157.473 195.856 156.988 195.952C156.503 196.048 156 195.999 155.543 195.81C155.086 195.62 154.696 195.3 154.421 194.889C154.147 194.478 154 193.994 154 193.5C154 192.837 154.263 192.201 154.732 191.732C155.201 191.263 155.837 191 156.5 191ZM156.5 194C156.599 194 156.696 193.971 156.778 193.916C156.86 193.861 156.924 193.783 156.962 193.691C157 193.6 157.01 193.499 156.99 193.402C156.971 193.305 156.923 193.216 156.854 193.146C156.784 193.077 156.695 193.029 156.598 193.01C156.501 192.99 156.4 193 156.309 193.038C156.217 193.076 156.139 193.14 156.084 193.222C156.029 193.304 156 193.401 156 193.5C156 193.633 156.053 193.76 156.146 193.854C156.24 193.947 156.367 194 156.5 194ZM163.5 191C163.994 191 164.478 191.147 164.889 191.421C165.3 191.696 165.62 192.086 165.81 192.543C165.999 193 166.048 193.503 165.952 193.988C165.856 194.473 165.617 194.918 165.268 195.268C164.918 195.617 164.473 195.856 163.988 195.952C163.503 196.048 163 195.999 162.543 195.81C162.086 195.62 161.696 195.3 161.421 194.889C161.147 194.478 161 193.994 161 193.5C161 192.837 161.263 192.201 161.732 191.732C162.201 191.263 162.837 191 163.5 191ZM163.5 194C163.599 194 163.696 193.971 163.778 193.916C163.86 193.861 163.924 193.783 163.962 193.691C164 193.6 164.01 193.499 163.99 193.402C163.971 193.305 163.923 193.216 163.854 193.146C163.784 193.077 163.695 193.029 163.598 193.01C163.501 192.99 163.4 193 163.309 193.038C163.217 193.076 163.139 193.14 163.084 193.222C163.029 193.304 163 193.401 163 193.5C163 193.633 163.053 193.76 163.146 193.854C163.24 193.947 163.367 194 163.5 194Z" fill="black"/>
<path fill-rule="evenodd" clip-rule="evenodd" d="M184.973 162.133C184.973 162.153 184.973 162.171 184.973 162.191L183.988 167.206C183.973 167.251 183.954 167.295 183.932 167.337C183.919 167.372 183.905 167.404 183.889 167.437C183.849 167.519 183.798 167.595 183.737 167.663C183.711 167.691 183.685 167.716 183.656 167.742C183.592 167.798 183.522 167.845 183.446 167.883C183.404 167.904 183.36 167.922 183.315 167.936C183.242 167.961 183.167 167.976 183.09 167.982C183.06 167.99 183.03 167.996 183 168H173C172.972 168 172.949 167.986 172.922 167.984C172.685 167.977 172.458 167.886 172.282 167.727C172.105 167.568 171.991 167.352 171.96 167.117L171.105 160H169C168.735 160 168.48 159.895 168.293 159.707C168.105 159.52 168 159.265 168 159C168 158.735 168.105 158.48 168.293 158.293C168.48 158.105 168.735 158 169 158H172C172.037 158.005 172.074 158.013 172.11 158.022C172.2 158.028 172.288 158.046 172.373 158.075C172.389 158.082 172.403 158.091 172.418 158.098C172.58 158.164 172.722 158.271 172.83 158.41C172.937 158.548 173.006 158.712 173.029 158.886L173.282 161H184C184.01 161 184.019 161.006 184.029 161.006C184.086 161.001 184.142 161.001 184.199 161.006C184.249 161.023 184.298 161.043 184.344 161.068C184.374 161.08 184.402 161.092 184.431 161.106C184.512 161.146 184.588 161.196 184.655 161.257C184.688 161.287 184.719 161.318 184.748 161.352C184.795 161.408 184.836 161.468 184.87 161.533C184.899 161.589 184.923 161.648 184.941 161.709C184.957 161.763 184.969 161.819 184.975 161.875C184.986 161.916 184.994 161.958 185 162C184.994 162.045 184.985 162.089 184.973 162.133ZM173.522 163L173.882 166H182.187L182.776 163H173.522ZM174.5 169C174.994 169 175.478 169.147 175.889 169.421C176.3 169.696 176.62 170.086 176.81 170.543C176.999 171 177.048 171.503 176.952 171.988C176.856 172.473 176.617 172.918 176.268 173.268C175.918 173.617 175.473 173.856 174.988 173.952C174.503 174.048 174 173.999 173.543 173.81C173.086 173.62 172.696 173.3 172.421 172.889C172.147 172.478 172 171.994 172 171.5C172 170.837 172.263 170.201 172.732 169.732C173.201 169.263 173.837 169 174.5 169ZM174.5 172C174.599 172 174.696 171.971 174.778 171.916C174.86 171.861 174.924 171.783 174.962 171.691C175 171.6 175.01 171.499 174.99 171.402C174.971 171.305 174.923 171.216 174.854 171.146C174.784 171.077 174.695 171.029 174.598 171.01C174.501 170.99 174.4 171 174.309 171.038C174.217 171.076 174.139 171.14 174.084 171.222C174.029 171.304 174 171.401 174 171.5C174 171.633 174.053 171.76 174.146 171.854C174.24 171.947 174.367 172 174.5 172ZM181.5 169C181.994 169 182.478 169.147 182.889 169.421C183.3 169.696 183.62 170.086 183.81 170.543C183.999 171 184.048 171.503 183.952 171.988C183.856 172.473 183.617 172.918 183.268 173.268C182.918 173.617 182.473 173.856 181.988 173.952C181.503 174.048 181 173.999 180.543 173.81C180.086 173.62 179.696 173.3 179.421 172.889C179.147 172.478 179 171.994 179 171.5C179 170.837 179.263 170.201 179.732 169.732C180.201 169.263 180.837 169 181.5 169ZM181.5 172C181.599 172 181.696 171.971 181.778 171.916C181.86 171.861 181.924 171.783 181.962 171.691C182 171.6 182.01 171.499 181.99 171.402C181.971 171.305 181.923 171.216 181.854 171.146C181.784 171.077 181.695 171.029 181.598 171.01C181.501 170.99 181.4 171 181.309 171.038C181.217 171.076 181.139 171.14 181.084 171.222C181.029 171.304 181 171.401 181 171.5C181 171.633 181.053 171.76 181.146 171.854C181.24 171.947 181.367 172 181.5 172Z" fill="white"/>
<path fill-rule="evenodd" clip-rule="evenodd" d="M136.953 187.353L137 187.375L129.709 195H129.291L122 187.375L122.047 187.353C121.642 186.867 121.343 186.301 121.172 185.692C121.001 185.083 120.961 184.445 121.054 183.819C121.148 183.193 121.372 182.594 121.714 182.061C122.055 181.529 122.505 181.074 123.035 180.728C123.564 180.382 124.161 180.151 124.786 180.052C125.411 179.953 126.05 179.987 126.66 180.153C127.271 180.318 127.84 180.611 128.329 181.012C128.819 181.413 129.218 181.913 129.5 182.479C129.782 181.912 130.18 181.41 130.67 181.008C131.16 180.606 131.729 180.312 132.34 180.146C132.951 179.98 133.591 179.945 134.217 180.044C134.843 180.143 135.44 180.373 135.971 180.72C136.501 181.067 136.951 181.522 137.293 182.056C137.635 182.589 137.859 183.189 137.952 183.816C138.045 184.442 138.004 185.082 137.832 185.691C137.659 186.301 137.36 186.867 136.953 187.353ZM133.5 182C133.164 182 132.831 182.067 132.522 182.199C132.212 182.33 131.933 182.523 131.7 182.766L131.684 182.75L129.877 185H129.119L127.344 182.812L127.338 182.818C127.11 182.568 126.833 182.367 126.525 182.227C126.216 182.088 125.883 182.013 125.544 182.006C125.206 182 124.87 182.063 124.556 182.191C124.243 182.318 123.959 182.509 123.722 182.75C123.484 182.992 123.299 183.279 123.176 183.594C123.053 183.91 122.996 184.247 123.008 184.585C123.02 184.924 123.101 185.256 123.246 185.562C123.391 185.868 123.596 186.141 123.85 186.365L129.5 192.438L135.406 186.125L135.394 186.115C135.706 185.754 135.908 185.31 135.975 184.837C136.042 184.364 135.972 183.882 135.772 183.448C135.572 183.014 135.252 182.647 134.849 182.39C134.446 182.133 133.978 181.998 133.5 182Z" fill="black"/>
<path fill-rule="evenodd" clip-rule="evenodd" d="M158.953 165.353L159 165.375L151.709 173H151.291L144 165.375L144.047 165.353C143.642 164.867 143.343 164.301 143.172 163.692C143.001 163.083 142.961 162.445 143.054 161.819C143.148 161.193 143.372 160.594 143.714 160.061C144.055 159.529 144.505 159.074 145.035 158.728C145.564 158.382 146.161 158.151 146.786 158.052C147.411 157.953 148.05 157.987 148.66 158.153C149.271 158.318 149.84 158.611 150.329 159.012C150.819 159.413 151.218 159.913 151.5 160.479C151.782 159.912 152.18 159.41 152.67 159.008C153.16 158.606 153.729 158.312 154.34 158.146C154.951 157.98 155.591 157.945 156.217 158.044C156.843 158.143 157.44 158.373 157.971 158.72C158.501 159.067 158.951 159.522 159.293 160.056C159.635 160.589 159.859 161.189 159.952 161.816C160.045 162.442 160.004 163.082 159.832 163.691C159.659 164.301 159.36 164.867 158.953 165.353ZM155.5 160C155.164 160 154.831 160.067 154.522 160.199C154.212 160.33 153.933 160.523 153.7 160.766L153.684 160.75L151.877 163H151.119L149.344 160.812L149.338 160.818C149.11 160.568 148.833 160.367 148.525 160.227C148.216 160.088 147.883 160.013 147.544 160.006C147.206 160 146.87 160.063 146.556 160.191C146.243 160.318 145.959 160.509 145.722 160.75C145.484 160.992 145.299 161.279 145.176 161.594C145.053 161.91 144.996 162.247 145.008 162.585C145.02 162.924 145.101 163.256 145.246 163.562C145.391 163.868 145.596 164.141 145.85 164.365L151.5 170.438L157.406 164.125L157.394 164.115C157.706 163.754 157.908 163.31 157.975 162.837C158.042 162.364 157.972 161.882 157.772 161.448C157.572 161.014 157.252 160.647 156.849 160.39C156.446 160.133 155.978 159.998 155.5 160Z" fill="white"/>
<path fill-rule="evenodd" clip-rule="evenodd" d="M14.6964 5.70297L8.74197 11.6815C8.73597 11.6876 8.73497 11.6946 8.72897 11.7006C8.72297 11.7066 8.71397 11.7086 8.70797 11.7156L8.69697 11.7266C8.67444 11.7429 8.65107 11.7579 8.62695 11.7717C8.55296 11.8365 8.4697 11.8898 8.37994 11.9299C8.32668 11.9459 8.27215 11.9573 8.21693 11.964C8.15165 11.9827 8.08464 11.9948 8.01692 12C7.95231 11.9954 7.88831 11.9843 7.82589 11.967C7.76481 11.9601 7.70454 11.9473 7.64588 11.9289C7.59163 11.9003 7.54007 11.8667 7.49187 11.8288C7.43396 11.801 7.37901 11.7674 7.32785 11.7286L4.3056 8.70728C4.21118 8.61736 4.13556 8.50955 4.08313 8.3901C4.03069 8.27066 4.00248 8.14197 4.00016 8.01151C3.99783 7.88106 4.02143 7.75144 4.06957 7.63019C4.11772 7.50895 4.18945 7.3985 4.28061 7.30527C4.46446 7.1169 4.71503 7.00864 4.97803 7.00396C5.24104 6.99927 5.49529 7.09853 5.68572 7.28023L8.01591 9.60857L13.3273 4.27592C13.5163 4.09412 13.7697 3.99494 14.0317 4.0002C14.2937 4.00546 14.5429 4.11473 14.7244 4.30396C14.906 4.4932 15.0051 4.74691 14.9998 5.00928C14.9945 5.27164 14.8854 5.52116 14.6964 5.70297Z" fill="#E62222"/>
<path fill-rule="evenodd" clip-rule="evenodd" d="M29.6964 5.70297L23.742 11.6815C23.736 11.6876 23.735 11.6946 23.729 11.7006C23.723 11.7066 23.714 11.7086 23.708 11.7156L23.697 11.7266C23.6744 11.7429 23.6511 11.7579 23.627 11.7717C23.553 11.8365 23.4697 11.8898 23.3799 11.9299C23.3267 11.9459 23.2721 11.9573 23.2169 11.964C23.1517 11.9827 23.0846 11.9948 23.0169 12C22.9523 11.9954 22.8883 11.9843 22.8259 11.967C22.7648 11.9601 22.7045 11.9473 22.6459 11.9289C22.5916 11.9003 22.5401 11.8667 22.4919 11.8288C22.434 11.801 22.379 11.7674 22.3279 11.7286L19.3056 8.70728C19.2112 8.61736 19.1356 8.50955 19.0831 8.3901C19.0307 8.27066 19.0025 8.14197 19.0002 8.01151C18.9978 7.88106 19.0214 7.75143 19.0696 7.63019C19.1177 7.50895 19.1895 7.3985 19.2806 7.30527C19.4645 7.1169 19.715 7.00864 19.978 7.00396C20.241 6.99927 20.4953 7.09853 20.6857 7.28023L23.0159 9.60857L28.3273 4.27592C28.5163 4.09412 28.7697 3.99494 29.0317 4.0002C29.2937 4.00546 29.5429 4.11473 29.7244 4.30396C29.906 4.4932 30.0051 4.74691 29.9998 5.00928C29.9945 5.27164 29.8854 5.52116 29.6964 5.70297Z" fill="#37AC09"/>
<path d="M37 8L40.5 12L47 5" stroke="white" stroke-width="2" stroke-linecap="round" stroke-linejoin="round"/>
<path fill-rule="evenodd" clip-rule="evenodd" d="M58.6785 8.71645L53.7342 13.6823C53.7282 13.6883 53.7272 13.6953 53.7213 13.7013C53.7153 13.7073 53.7063 13.7092 53.7003 13.7162L53.6893 13.7272C53.6668 13.7434 53.6435 13.7585 53.6195 13.7722C53.5456 13.8368 53.4625 13.89 53.3729 13.9301C53.3198 13.9461 53.2654 13.9574 53.2103 13.964C53.1451 13.9828 53.0782 13.9948 53.0107 14C52.9462 13.9954 52.8823 13.9843 52.82 13.967C52.7591 13.9602 52.6989 13.9474 52.6404 13.9291C52.5862 13.9005 52.5348 13.867 52.4867 13.8291C52.4289 13.8015 52.3741 13.768 52.323 13.7292L50.305 11.7139C50.2107 11.6242 50.1353 11.5166 50.083 11.3975C50.0306 11.2783 50.0025 11.1499 50.0002 11.0197C49.9978 10.8896 50.0214 10.7603 50.0694 10.6393C50.1175 10.5183 50.1891 10.4081 50.28 10.3151C50.4635 10.1272 50.7136 10.0192 50.976 10.0145C51.2385 10.0098 51.4922 10.1088 51.6823 10.2901L53.0097 11.614L57.3132 7.29266C57.4058 7.19903 57.5162 7.1249 57.6378 7.07464C57.7595 7.02439 57.8899 6.99902 58.0215 7.00003C58.1531 7.00104 58.2832 7.02841 58.404 7.08054C58.5249 7.13266 58.6341 7.20848 58.7253 7.30352C58.8164 7.39857 58.8876 7.51091 58.9347 7.63394C58.9818 7.75697 59.0038 7.88818 58.9995 8.01986C58.9951 8.15154 58.9645 8.28101 58.9093 8.40065C58.8542 8.52029 58.7757 8.62766 58.6785 8.71645Z" fill="white"/>
<path fill-rule="evenodd" clip-rule="evenodd" d="M6 192C6 192 2 188.209 2 186C2 184.939 2.42142 183.922 3.17157 183.172C3.92172 182.421 4.93913 182 6 182C7.06087 182 8.07828 182.421 8.82843 183.172C9.57858 183.922 10 184.939 10 186C10 188.209 6 192 6 192ZM6 184C5.60444 184 5.21775 184.117 4.88885 184.337C4.55996 184.557 4.30361 184.869 4.15224 185.235C4.00086 185.6 3.96127 186.002 4.03844 186.39C4.11561 186.778 4.30608 187.135 4.58578 187.414C4.86549 187.694 5.22186 187.884 5.60982 187.962C5.99778 188.039 6.39991 187.999 6.76537 187.848C7.13082 187.696 7.44317 187.44 7.66293 187.111C7.8827 186.782 8 186.396 8 186C8 185.47 7.78929 184.961 7.41422 184.586C7.03914 184.211 6.53043 184 6 184Z" fill="black"/>
<path fill-rule="evenodd" clip-rule="evenodd" d="M17 192C17 192 13 188.209 13 186C13 184.939 13.4214 183.922 14.1716 183.172C14.9217 182.421 15.9391 182 17 182C18.0609 182 19.0783 182.421 19.8284 183.172C20.5786 183.922 21 184.939 21 186C21 188.209 17 192 17 192ZM17 184C16.6044 184 16.2178 184.117 15.8889 184.337C15.56 184.557 15.3036 184.869 15.1522 185.235C15.0009 185.6 14.9613 186.002 15.0384 186.39C15.1156 186.778 15.3061 187.135 15.5858 187.414C15.8655 187.694 16.2219 187.884 16.6098 187.962C16.9978 188.039 17.3999 187.999 17.7654 187.848C18.1308 187.696 18.4432 187.44 18.6629 187.111C18.8827 186.782 19 186.396 19 186C19 185.47 18.7893 184.961 18.4142 184.586C18.0391 184.211 17.5304 184 17 184Z" fill="white"/>
<path fill-rule="evenodd" clip-rule="evenodd" d="M180.991 61.0301C180.993 61.0921 180.99 61.1544 180.982 61.2159C180.967 61.258 180.949 61.299 180.929 61.3388C180.919 61.3638 180.909 61.3858 180.897 61.4098C180.817 61.6118 180.668 61.7795 180.478 61.884C180.287 61.9885 180.066 62.0233 179.852 61.9823L163.04 58.0313L146.34 61.9364C146.187 62.0007 146.018 62.0167 145.856 61.9823H145.844C145.816 61.9772 145.788 61.9705 145.76 61.9623L128.72 57.9574C128.689 57.9454 128.66 57.9314 128.631 57.9154L128.592 57.8964C128.484 57.8526 128.387 57.7869 128.306 57.7036C128.297 57.6956 128.291 57.6856 128.283 57.6776C128.217 57.6061 128.162 57.5249 128.121 57.4368C128.092 57.3744 128.07 57.3091 128.055 57.2419C128.045 57.2028 128.036 57.1631 128.031 57.123C128.017 57.079 128.007 57.0338 128 56.9881V22.0144C128.006 21.9435 128.02 21.8734 128.042 21.8056C128.042 21.8056 128.042 21.7956 128.042 21.7916C128.042 21.7876 128.042 21.7856 128.042 21.7816C128.068 21.6695 128.115 21.5632 128.18 21.4678C128.195 21.4429 128.21 21.4199 128.227 21.3969C128.272 21.3415 128.323 21.2909 128.378 21.246C128.439 21.1938 128.506 21.1495 128.578 21.1141L128.645 21.0861C128.747 21.0443 128.855 21.0222 128.965 21.0212C128.977 21.0212 128.987 21.0142 128.999 21.0142C129.011 21.0142 129.025 21.0212 129.038 21.0222C129.083 21.0185 129.127 21.0185 129.172 21.0222L141.707 23.968C141.925 24.736 142.194 25.4885 142.513 26.2203L130 23.2825V56.1887L145 59.715V30.7578L147 33.256V59.728L162 56.2217V42.9986L164 41.0001V56.1887L179 59.715V26.8108L175.59 26.0114C175.848 25.3891 176.072 24.753 176.259 24.1059L180.309 25.0581C180.336 25.0694 180.363 25.0821 180.389 25.0961C180.569 25.1648 180.723 25.2873 180.83 25.4469C180.938 25.6064 180.993 25.7952 180.989 25.9874C180.993 25.9953 180.997 26.0033 181 26.0114V60.8172C181 60.8172 181 60.8252 181 60.8292V60.9851C181 61.0011 180.992 61.0141 180.991 61.0301ZM171 28.0099L170.84 28.1968C170.542 28.5798 170.226 28.9462 169.893 29.2959L159 41.9994L148.107 29.2999C147.774 28.9475 147.458 28.5812 147.16 28.2008L147 28.0099L147.008 27.9939C145.334 25.7677 144.313 23.1194 144.061 20.346C143.808 17.5726 144.334 14.7837 145.579 12.2923C146.824 9.80079 148.739 7.7052 151.11 6.24052C153.48 4.77584 156.212 4 158.999 4C161.786 4 164.518 4.77584 166.888 6.24052C169.259 7.7052 171.174 9.80079 172.419 12.2923C173.664 14.7837 174.19 17.5726 173.937 20.346C173.685 23.1194 172.664 25.7677 170.99 27.9939L171 28.0099ZM172 19.0167C172.004 16.9579 171.518 14.9278 170.582 13.0936C169.646 11.2595 168.288 9.67381 166.618 8.46737C164.949 7.26093 163.016 6.46826 160.98 6.15472C158.944 5.84118 156.862 6.01574 154.906 6.66402C152.951 7.3123 151.178 8.41572 149.733 9.88332C148.288 11.3509 147.213 13.1407 146.596 15.105C145.979 17.0694 145.839 19.1521 146.186 21.1814C146.533 23.2107 147.358 25.1286 148.592 26.7768V26.7918L148.681 26.8978C148.923 27.2142 149.179 27.5183 149.449 27.8101L159 39.1495L168.821 27.5103C168.933 27.3814 169.044 27.2535 169.15 27.1206L169.375 26.8548L169.386 26.8068C171.083 24.5636 172 21.8285 172 19.0167ZM159 28.0099C157.22 28.0099 155.48 27.4825 154 26.4943C152.52 25.5061 151.366 24.1015 150.685 22.4582C150.004 20.8149 149.826 19.0067 150.173 17.2622C150.52 15.5177 151.377 13.9152 152.636 12.6575C153.895 11.3998 155.498 10.5433 157.244 10.1963C158.99 9.84925 160.8 10.0273 162.444 10.708C164.089 11.3887 165.494 12.5414 166.483 14.0203C167.472 15.4992 168 17.238 168 19.0167C168 21.4018 167.052 23.6893 165.364 25.3759C163.676 27.0624 161.387 28.0099 159 28.0099ZM159 12.0219C157.616 12.0219 156.262 12.4322 155.111 13.2008C153.96 13.9694 153.063 15.0618 152.533 16.3399C152.003 17.618 151.864 19.0244 152.134 20.3813C152.405 21.7381 153.071 22.9845 154.05 23.9627C155.029 24.9409 156.277 25.6071 157.634 25.877C158.992 26.1469 160.4 26.0084 161.679 25.479C162.958 24.9496 164.051 24.053 164.82 22.9028C165.589 21.7525 166 20.4001 166 19.0167C166 17.1616 165.262 15.3824 163.95 14.0707C162.637 12.7589 160.857 12.0219 159 12.0219Z" fill="black"/>
<path fill-rule="evenodd" clip-rule="evenodd" d="M113.991 61.0301C113.993 61.0921 113.99 61.1544 113.982 61.2159C113.967 61.258 113.949 61.299 113.929 61.3388C113.919 61.3638 113.909 61.3858 113.897 61.4098C113.817 61.6118 113.668 61.7795 113.478 61.884C113.287 61.9885 113.066 62.0233 112.852 61.9823L96.04 58.0313L79.34 61.9364C79.1871 62.0007 79.0182 62.0167 78.856 61.9823H78.844C78.8157 61.9772 78.7876 61.9705 78.76 61.9623L61.72 57.9574C61.6894 57.9454 61.6597 57.9314 61.631 57.9154L61.592 57.8964C61.4843 57.8526 61.387 57.7869 61.306 57.7036C61.297 57.6956 61.291 57.6856 61.283 57.6776C61.2169 57.6061 61.1622 57.5249 61.121 57.4368C61.0919 57.3744 61.0697 57.3091 61.055 57.2419C61.0445 57.2028 61.0365 57.1631 61.031 57.123C61.017 57.079 61.0066 57.0338 61 56.9881V22.0144C61.0063 21.9435 61.0204 21.8734 61.042 21.8056C61.042 21.8056 61.042 21.7956 61.042 21.7916C61.042 21.7876 61.042 21.7856 61.042 21.7816C61.0685 21.6695 61.1153 21.5632 61.18 21.4678C61.195 21.4429 61.21 21.4199 61.227 21.3969C61.2719 21.3415 61.3225 21.2909 61.378 21.246C61.4389 21.1938 61.5061 21.1495 61.578 21.1141L61.645 21.0861C61.7465 21.0443 61.8552 21.0222 61.965 21.0212C61.977 21.0212 61.987 21.0142 61.999 21.0142C62.011 21.0142 62.025 21.0212 62.038 21.0222C62.0826 21.0185 62.1274 21.0185 62.172 21.0222L74.707 23.968C74.9246 24.736 75.1939 25.4885 75.513 26.2203L63 23.2825V56.1887L78 59.715V30.7578L80 33.256V59.728L95 56.2217V42.9986L97 41.0001V56.1887L112 59.715V26.8108L108.59 26.0114C108.848 25.3891 109.072 24.753 109.259 24.1059L113.309 25.0581C113.336 25.0694 113.363 25.0821 113.389 25.0961C113.569 25.1648 113.723 25.2873 113.83 25.4469C113.938 25.6064 113.993 25.7952 113.989 25.9874C113.993 25.9953 113.997 26.0033 114 26.0114V60.8172C114 60.8172 114 60.8252 114 60.8292V60.9851C114 61.0011 113.992 61.0141 113.991 61.0301ZM104 28.0099L103.84 28.1968C103.542 28.5798 103.226 28.9462 102.893 29.2959L92 41.9994L81.107 29.2999C80.7737 28.9475 80.458 28.5812 80.16 28.2008L80 28.0099L80.008 27.9939C78.3336 25.7677 77.313 23.1194 77.0606 20.346C76.8083 17.5726 77.3341 14.7837 78.5793 12.2923C79.8244 9.80079 81.7395 7.7052 84.1098 6.24052C86.4802 4.77584 89.212 4 91.999 4C94.7859 4 97.5178 4.77584 99.8882 6.24052C102.259 7.7052 104.174 9.80079 105.419 12.2923C106.664 14.7837 107.19 17.5726 106.937 20.346C106.685 23.1194 105.664 25.7677 103.99 27.9939L104 28.0099ZM105 19.0167C105.004 16.9579 104.518 14.9278 103.582 13.0936C102.646 11.2595 101.288 9.67381 99.6181 8.46737C97.9487 7.26093 96.0161 6.46826 93.9799 6.15472C91.9436 5.84118 89.8619 6.01574 87.9065 6.66402C85.951 7.3123 84.1777 8.41572 82.7328 9.88332C81.2879 11.3509 80.2128 13.1407 79.5961 15.105C78.9794 17.0694 78.8387 19.1521 79.1858 21.1814C79.5328 23.2107 80.3575 25.1286 81.592 26.7768V26.7918L81.681 26.8978C81.923 27.2142 82.179 27.5183 82.449 27.8101L92 39.1495L101.821 27.5103C101.933 27.3814 102.044 27.2535 102.15 27.1206L102.375 26.8548L102.386 26.8068C104.083 24.5636 105 21.8285 105 19.0167ZM92 28.0099C90.22 28.0099 88.4799 27.4825 86.9999 26.4943C85.5198 25.5061 84.3663 24.1015 83.6851 22.4582C83.0039 20.8149 82.8257 19.0067 83.1729 17.2622C83.5202 15.5177 84.3774 13.9152 85.636 12.6575C86.8947 11.3998 88.4984 10.5433 90.2442 10.1963C91.99 9.84925 93.7996 10.0273 95.4442 10.708C97.0887 11.3887 98.4943 12.5414 99.4832 14.0203C100.472 15.4992 101 17.238 101 19.0167C101 21.4018 100.052 23.6893 98.364 25.3759C96.6761 27.0624 94.3869 28.0099 92 28.0099ZM92 12.0219C90.6155 12.0219 89.2622 12.4322 88.111 13.2008C86.9599 13.9694 86.0627 15.0618 85.5328 16.3399C85.003 17.618 84.8644 19.0244 85.1345 20.3813C85.4046 21.7381 86.0713 22.9845 87.0503 23.9627C88.0292 24.9409 89.2765 25.6071 90.6344 25.877C91.9922 26.1469 93.3997 26.0084 94.6788 25.479C95.9579 24.9496 97.0511 24.053 97.8203 22.9028C98.5895 21.7525 99 20.4001 99 19.0167C99 17.1616 98.2625 15.3824 96.9497 14.0707C95.637 12.7589 93.8565 12.0219 92 12.0219Z" fill="white"/>
</svg>
