<svg width="51" height="51" viewBox="0 0 51 51" fill="none" xmlns="http://www.w3.org/2000/svg">
<path d="M12.6413 42.3098C10.9052 42.3098 9.42947 41.7022 8.21419 40.4869C6.99891 39.2716 6.39128 37.7959 6.39128 36.0598H2.22461V13.1431C2.22461 11.9973 2.6326 11.0164 3.44857 10.2004C4.26454 9.38446 5.24544 8.97647 6.39128 8.97647H35.5579V17.3098H41.8079L48.0579 25.6431V36.0598H43.8913C43.8913 37.7959 43.2836 39.2716 42.0684 40.4869C40.8531 41.7022 39.3774 42.3098 37.6413 42.3098C35.9052 42.3098 34.4295 41.7022 33.2142 40.4869C31.9989 39.2716 31.3913 37.7959 31.3913 36.0598H18.8913C18.8913 37.7959 18.2836 39.2716 17.0684 40.4869C15.8531 41.7022 14.3774 42.3098 12.6413 42.3098ZM12.6413 38.1431C13.2316 38.1431 13.7263 37.9435 14.1257 37.5442C14.525 37.1449 14.7246 36.6501 14.7246 36.0598C14.7246 35.4695 14.525 34.9747 14.1257 34.5754C13.7263 34.1761 13.2316 33.9765 12.6413 33.9765C12.051 33.9765 11.5562 34.1761 11.1569 34.5754C10.7576 34.9747 10.5579 35.4695 10.5579 36.0598C10.5579 36.6501 10.7576 37.1449 11.1569 37.5442C11.5562 37.9435 12.051 38.1431 12.6413 38.1431ZM6.39128 31.8931H8.05794C8.64822 31.2681 9.3253 30.7647 10.0892 30.3827C10.8531 30.0008 11.7038 29.8098 12.6413 29.8098C13.5788 29.8098 14.4295 30.0008 15.1934 30.3827C15.9572 30.7647 16.6343 31.2681 17.2246 31.8931H31.3913V13.1431H6.39128V31.8931ZM37.6413 38.1431C38.2316 38.1431 38.7263 37.9435 39.1256 37.5442C39.525 37.1449 39.7246 36.6501 39.7246 36.0598C39.7246 35.4695 39.525 34.9747 39.1256 34.5754C38.7263 34.1761 38.2316 33.9765 37.6413 33.9765C37.051 33.9765 36.5562 34.1761 36.1569 34.5754C35.7576 34.9747 35.5579 35.4695 35.5579 36.0598C35.5579 36.6501 35.7576 37.1449 36.1569 37.5442C36.5562 37.9435 37.051 38.1431 37.6413 38.1431ZM35.5579 27.7265H44.4121L39.7246 21.4765H35.5579V27.7265Z" fill="#551287"/>
</svg>
