<svg width="12.000000" height="20.000000" viewBox="0 0 12 20" fill="none" xmlns="http://www.w3.org/2000/svg" xmlns:xlink="http://www.w3.org/1999/xlink">
	<desc>
			Created with Pixso.
	</desc>
	<defs/>
	<path id="Vector" d="M12 13.25C12 14.98 11.39 16.45 10.17 17.67C8.95 18.89 7.48 19.5 5.75 19.5C4.01 19.5 2.54 18.89 1.32 17.67C0.1 16.45 -0.5 14.98 -0.5 13.25L-0.5 4C-0.5 2.75 -0.07 1.68 0.81 0.81C1.68 -0.07 2.75 -0.5 4 -0.5C5.25 -0.5 6.31 -0.07 7.18 0.81C8.06 1.68 8.5 2.75 8.5 4L8.5 12.75C8.5 13.51 8.23 14.16 7.7 14.7C7.16 15.23 6.51 15.5 5.75 15.5C4.98 15.5 4.33 15.23 3.79 14.7C3.26 14.16 3 13.51 3 12.75L3 3.5L5 3.5L5 12.75C5 12.96 5.07 13.14 5.21 13.28C5.35 13.42 5.53 13.5 5.75 13.5C5.96 13.5 6.14 13.42 6.28 13.28C6.42 13.14 6.5 12.96 6.5 12.75L6.5 4C6.48 3.3 6.23 2.7 5.76 2.22C5.28 1.74 4.7 1.5 4 1.5C3.29 1.5 2.7 1.74 2.22 2.22C1.74 2.7 1.5 3.3 1.5 4L1.5 13.25C1.48 14.43 1.89 15.43 2.72 16.26C3.55 17.08 4.56 17.5 5.75 17.5C6.91 17.5 7.9 17.08 8.72 16.26C9.54 15.43 9.96 14.43 10 13.25L10 3.5L12 3.5L12 13.25Z" fill="#551287" fill-opacity="1.000000" fill-rule="nonzero"/>
</svg>
