<svg width="34" height="35" viewBox="0 0 34 35" fill="none" xmlns="http://www.w3.org/2000/svg">
<path d="M17.3083 17.6431C15.0166 17.6431 13.0548 16.8272 11.4229 15.1952C9.79091 13.5633 8.97493 11.6015 8.97493 9.3098C8.97493 7.01814 9.79091 5.05633 11.4229 3.42439C13.0548 1.79244 15.0166 0.976471 17.3083 0.976471C19.5999 0.976471 21.5617 1.79244 23.1937 3.42439C24.8256 5.05633 25.6416 7.01814 25.6416 9.3098C25.6416 11.6015 24.8256 13.5633 23.1937 15.1952C21.5617 16.8272 19.5999 17.6431 17.3083 17.6431ZM0.641602 34.3098V28.4765C0.641602 27.2959 0.945421 26.2108 1.55306 25.2213C2.1607 24.2317 2.96799 23.4765 3.97493 22.9556C6.12771 21.8792 8.31521 21.072 10.5374 20.5338C12.7597 19.9956 15.0166 19.7265 17.3083 19.7265C19.5999 19.7265 21.8569 19.9956 24.0791 20.5338C26.3013 21.072 28.4888 21.8792 30.6416 22.9556C31.6485 23.4765 32.4558 24.2317 33.0635 25.2213C33.6711 26.2108 33.9749 27.2959 33.9749 28.4765V34.3098H0.641602ZM4.80827 30.1431H29.8083V28.4765C29.8083 28.0945 29.7128 27.7473 29.5218 27.4348C29.3308 27.1223 29.0791 26.8792 28.7666 26.7056C26.8916 25.7681 24.9992 25.065 23.0895 24.5963C21.1798 24.1275 19.2527 23.8931 17.3083 23.8931C15.3638 23.8931 13.4367 24.1275 11.527 24.5963C9.6173 25.065 7.72493 25.7681 5.84993 26.7056C5.53743 26.8792 5.2857 27.1223 5.09473 27.4348C4.90375 27.7473 4.80827 28.0945 4.80827 28.4765V30.1431ZM17.3083 13.4765C18.4541 13.4765 19.435 13.0685 20.251 12.2525C21.0669 11.4365 21.4749 10.4556 21.4749 9.3098C21.4749 8.16397 21.0669 7.18307 20.251 6.3671C19.435 5.55112 18.4541 5.14314 17.3083 5.14314C16.1624 5.14314 15.1815 5.55112 14.3656 6.3671C13.5496 7.18307 13.1416 8.16397 13.1416 9.3098C13.1416 10.4556 13.5496 11.4365 14.3656 12.2525C15.1815 13.0685 16.1624 13.4765 17.3083 13.4765Z" fill="#551287"/>
</svg>
