<svg width="51" height="51" viewBox="0 0 51 51" fill="none" xmlns="http://www.w3.org/2000/svg">
<path d="M18.3446 47.5181L14.3862 40.8515L6.88623 39.1848L7.6154 31.4765L2.51123 25.6431L7.6154 19.8098L6.88623 12.1015L14.3862 10.4348L18.3446 3.76813L25.4279 6.78896L32.5112 3.76813L36.4696 10.4348L43.9696 12.1015L43.2404 19.8098L48.3446 25.6431L43.2404 31.4765L43.9696 39.1848L36.4696 40.8515L32.5112 47.5181L25.4279 44.4973L18.3446 47.5181ZM20.1154 42.2056L25.4279 39.914L30.8446 42.2056L33.7612 37.2056L39.4904 35.8515L38.9696 30.0181L42.8237 25.6431L38.9696 21.164L39.4904 15.3306L33.7612 14.0806L30.7404 9.08063L25.4279 11.3723L20.0112 9.08063L17.0946 14.0806L11.3654 15.3306L11.8862 21.164L8.03206 25.6431L11.8862 30.0181L11.3654 35.9556L17.0946 37.2056L20.1154 42.2056ZM23.2404 33.039L35.0112 21.2681L32.0946 18.2473L23.2404 27.1015L18.7612 22.7265L15.8446 25.6431L23.2404 33.039Z" fill="#551287"/>
</svg>
